{"title":"QI XL_P S16E02 Peril. revittony","magnet":"magnet:?xt=urn:btih:ae4ed67166930ec773897e1e7d026dda5dea1dd4&dn=QI+XL_P+S16E02+Peril.+revittony&tr=udp%3A%2F%2Ftracker.leechers-paradise.org%3A6969&tr=udp%3A%2F%2Fzer0day.ch%3A1337&tr=udp%3A%2F%2Fopen.demonii.com%3A1337&tr=udp%3A%2F%2Ftracker.coppersurfer.tk%3A6969&tr=udp%3A%2F%2Fexodus.desync.com%3A6969","uploader":"revittony1","categoryP":"video","categoryS":"tv_shows","size":"564439802","seeders":"17","leechers":"13","description":"www.imdb.com/title/tt0380136\r\n\r\n\r\nFormat : MPEG-4 \r\nFormat profile : Base Media \r\nCodec ID : isom (isom/iso2/avc1/mp41) \r\nOverall bit rate mode : Variable \r\nOverall bit rate : 1 701 kb/s \r\n\r\n\r\nVideo \r\nID : 1 \r\nFormat : AVC \r\nFormat/Info : Advanced Video Codec \r\nFormat profile : Main@L3.1 \r\nFormat settings : CABAC / 4 Ref Frames \r\nFormat settings, CABAC : Yes \r\nFormat settings, RefFrames : 4 frames \r\nFormat settings, GOP : M=8, N=96 \r\nCodec ID : avc1 \r\nCodec ID/Info : Advanced Video Coding \r\nDuration : 44 min 14 s \r\nBit rate : 1 603 kb/s \r\nWidth : 960 pixels \r\nHeight : 540 pixels \r\nDisplay aspect ratio : 16:9 \r\nFrame rate mode : Constant \r\nFrame rate : 25.000 FPS \r\nColor space : YUV \r\nChroma subsampling : 4:2:0 \r\nBit depth : 8 bits \r\nScan type : Progressive \r\nBits/(Pixel*Frame) : 0.124 \r\nStream size : 507 MiB (94%) \r\nColor range : Limited \r\nColor primaries : BT.709 \r\nTransfer characteristics : BT.709 \r\nMatrix coefficients : BT.709 \r\nCodec configuration box : avcC \r\n\r\nAudio \r\nID : 2 \r\nFormat : AAC LC SBR \r\nFormat/Info : Advanced Audio Codec Low Complexity with Spectral Band Replication \r\nCommercial name : HE-AAC \r\nFormat settings : Implicit \r\nCodec ID : mp4a-40-2 \r\nDuration : 44 min 14 s \r\nBit rate mode : Variable \r\nBit rate : 96.0 kb/s \r\nChannel(s) : 2 channels \r\nChannel layout : L R \r\nSampling rate : 48.0 kHz \r\nFrame rate : 23.438 FPS (2048 SPF) \r\nCompression mode : Lossy \r\nStream size : 30.0 MiB (6%) \r\nLanguage : English \r\nDefault : Yes \r\nAlternate group : 1","last_updated":"2018-10-21T13:32:01.500Z","parsed":{"xt":"urn:btih:ae4ed67166930ec773897e1e7d026dda5dea1dd4","dn":"QI XL_P S16E02 Peril. revittony","tr":["udp://exodus.desync.com:6969","udp://open.demonii.com:1337","udp://tracker.coppersurfer.tk:6969","udp://tracker.leechers-paradise.org:6969","udp://zer0day.ch:1337"],"infoHash":"ae4ed67166930ec773897e1e7d026dda5dea1dd4","infoHashBuffer":{"type":"Buffer","data":[174,78,214,113,102,147,14,199,115,137,126,30,125,2,109,218,93,234,29,212]},"name":"QI XL_P S16E02 Peril. revittony","announce":["udp://exodus.desync.com:6969","udp://open.demonii.com:1337","udp://tracker.coppersurfer.tk:6969","udp://tracker.leechers-paradise.org:6969","udp://zer0day.ch:1337"],"urlList":[]}}